<?xml version="1.0" encoding="UTF-8"?><svg id="Layer_2" xmlns="http://www.w3.org/2000/svg" viewBox="0 0 526.25 438.86"><g id="Layer_6"><path d="m482.89,144.74c1.34,1.36,2.9,1.62,4.52,1.63,4.79.03,9.59,0,14.38.05,1.59.02,3.2.06,4.77.29,3.09.46,5.75,3.62,5.8,6.73.05,3.04-2.51,6.54-5.36,7.19-1.24.28-2.52.47-3.78.51-2.56.08-5.11.04-7.67.04-122.12,0-244.24,0-366.35,0-33.25,0-66.49-.02-99.74-.06-3.19,0-6.4-.04-9.57-.38-3.64-.4-6.09-3.63-6.02-7.46.05-2.99,2.07-5.69,4.91-6.32,1.55-.34,3.16-.51,4.74-.54,3.83-.08,7.67-.02,11.51-.06,1.92-.02,3.84-.05,5.74-.24,1.33-.14,2.35-.97,2.85-2.23.35-.88.6-1.82.78-2.76,3.79-19.07,13.08-35.17,26.38-49.15,17.48-18.37,38.75-30.02,63.25-36.03,9.97-2.45,20.1-3.74,30.37-3.78,10.87-.05,21.74-.05,32.61-.12,1.58-.01,3.17-.24,4.72-.55.53-.11,1.18-.69,1.37-1.2.54-1.49.91-3.05,1.29-4.59,5.13-20.94,18.19-34.82,38.18-42.15,23.06-8.46,53.08-1.99,70.28,21.32,2.86,3.87,5.35,7.98,6.87,12.58,1.2,3.63,2.26,7.31,3.3,10.99.78,2.77,1.61,3.51,4.76,3.59,2.88.08,5.75.06,8.63.07,9.59.03,19.19-.15,28.77.12,23.47.67,45.43,6.93,65.53,19.06,16.42,9.91,29.64,23.22,39.64,39.63,4.69,7.69,7.95,16.01,10.28,24.7.83,3.08,1.52,6.2,2.24,9.13Zm-218.95-82.15h0c-28.77,0-57.55-.04-86.32.01-6.07.01-12.14.33-18.21.45-13.62.27-26.54,3.85-39.11,8.68-6.86,2.63-13.36,6.11-19.39,10.41-2.35,1.67-4.73,3.3-6.28,5.8-.23.37.05,1.12.24,1.64.08.22.51.37.8.43,1.67.34,3.14-.33,4.59-1,6.68-3.07,13.28-6.34,20.05-9.18,11.85-4.97,24.04-8.71,37.04-9.07,6.39-.18,12.78-.44,19.17-.47,12.79-.06,25.58.03,38.36.03,46.04,0,92.08-.03,138.12-.02,4.79,0,9.59.1,14.38.27,13.9.49,27.22,3.52,39.85,9.41,6.08,2.84,12.13,5.74,18.2,8.61.87.41,1.73.83,2.63,1.16.59.21,1.24.26,1.87.39.76.16,2.35-.61,2.3-1.19-.05-.61-.08-1.44-.46-1.77-2.42-2.07-4.79-4.25-7.44-5.99-16.38-10.75-34.43-16.68-53.95-17.97-7.65-.51-15.33-.59-23-.61-27.81-.07-55.63-.03-83.44-.03Zm-1.11-10.53h0c11.51,0,23.02.02,34.53-.04,1.57,0,3.16-.32,4.69-.69.44-.11.95-.89.99-1.41.08-.92-.03-1.91-.3-2.79-3.12-9.99-9.81-17.06-18.57-22.34-21.34-12.87-51.82-3.72-60.36,22.4-.29.87-.31,1.89-.21,2.81.06.52.54,1.32.96,1.41,1.54.34,3.13.6,4.7.61,11.19.05,22.38.03,33.58.03Z" stroke-width="0"/><path d="m12.43,381.74c-2.67-.48-5.19-.76-7.6-1.42-2.71-.74-4.16-2.84-4.73-5.52-.6-2.85,1.49-6.17,4.25-6.5,2.84-.34,5.72-.53,8.59-.53,29.41-.04,58.82-.03,88.23-.03,54.99-.01,109.97-.05,164.96-.04,77.68.02,155.37.09,233.05.12,5.11,0,10.23-.1,15.34-.08,2.23,0,4.47.1,6.69.33,2.64.27,4.71,2.48,4.99,5.07.33,3.05-1.4,6.34-3.93,6.97-2.15.54-4.38.76-6.59,1.05-1.44.19-2.28,1.09-2.81,2.28-.38.86-.52,1.84-.75,2.77-3.68,14.96-12.23,26.52-24.62,35.43-1.81,1.3-3.6,2.63-5.38,3.96-.64.48-.72,1.09-.22,1.7.17.21.46.46.7.47,2.23.13,4.45.27,6.68.31,7.03.13,14.07.13,21.09.35,4.79.15,9.56.69,14.04,2.62.22.1.38.53.42.83.04.28-.02.71-.21.87-.46.4-.99.78-1.55.99-4.23,1.56-8.64,2.13-13.11,2.56-17.19,1.66-34.43,2-51.68,2-9.56,0-19.12-.11-28.69-.11-4.46,0-8.93.21-13.39.24-7.02.04-14.04.14-21.05-.02-6.69-.15-13.42-.2-20.07.09-11.18.49-22.33-.57-33.51.13-6.65.41-13.36-.23-20.04-.34-1.91-.03-3.83.21-5.74.28-2.87.11-5.77.44-8.62.2-10.22-.83-20.43-.24-30.65-.21-8.94.03-17.88-.23-26.81-.28-4.47-.03-8.95.13-13.42.17-11.79.09-23.59.56-35.36.11-9.26-.35-18.51.73-27.75-.28-2.51-.27-5.09.21-7.64.2-8.94-.01-17.87-.14-26.81-.13-14.68.01-29.36.18-44.04.13-9.9-.03-19.8-.35-29.7-.49-8.63-.12-17.25-.15-25.88-.25-8.63-.1-17.24-.67-25.79-1.89-2.53-.36-5.04-.85-7.54-1.39-2.21-.48-3.84-1.87-3.43-2.73.78-1.63,2.37-2.15,3.85-2.41,2.82-.5,5.7-.83,8.56-.9,8.31-.2,16.62-.22,24.93-.35,1.59-.02,3.18-.19,4.76-.36.2-.02.42-.39.51-.64.09-.26.15-.72,0-.84-1.23-1-2.46-2.01-3.76-2.91-5.83-4.02-11.05-8.71-15.53-14.18-5.32-6.5-9.55-13.58-11.51-21.87-.43-1.83-1.12-3.6-1.73-5.56Zm250.69-.93s0-.08,0-.11c-32.62,0-65.24-.03-97.85,0-29.74.03-59.48.11-89.22.25-4.14.02-8.28.52-12.41.89-.55.05-1.1.57-1.56.98-.36.32.91,1.64,1.9,1.8,3.15.48,6.3,1.15,9.46,1.27,9.26.35,18.54.58,27.81.64,16.94.11,33.88.07,50.83.09,15.66.02,31.32.04,46.98.06,12.15.01,24.3-.02,36.44.01,11.83.04,23.65.21,35.48.18,13.42-.03,26.83-.27,40.25-.29,22.7-.04,45.4.04,68.1,0,19.82-.03,39.65-.06,59.47-.3,6.7-.08,13.4-.76,20.09-1.24.9-.06,1.78-.54,2.63-.93.18-.08.25-.59.24-.89,0-.25-.15-.64-.34-.72-.85-.38-1.73-.92-2.62-.96-6.07-.31-12.14-.7-18.21-.71-59.16-.05-118.32-.03-177.48-.03Z" stroke-width="0"/><path d="m277.42,210.05c1.75.27,3.29.62,4.86.74,8.61.68,17.22,1.29,25.83,1.96,1.27.1,2.54.28,3.77.58,2.55.62,3.5,4.41,1.54,6.26-1.39,1.31-2.89,2.52-4.4,3.69-5.06,3.91-10.16,7.78-15.22,11.69-1.52,1.17-3,2.4-4.41,3.69-1.27,1.16-1.65,2.73-1.42,4.37.22,1.58.53,3.16.97,4.68,1.95,6.76,4.02,13.48,5.91,20.25.51,1.82.71,3.75.79,5.64.09,2.19-2.91,4.27-4.74,3.32-2.26-1.17-4.47-2.46-6.62-3.83-6.75-4.29-13.45-8.64-20.18-12.96-1.45-.93-2.98-1.03-4.51-.17-1.39.79-2.78,1.57-4.13,2.43-5.92,3.81-11.81,7.66-17.73,11.46-1.61,1.03-3.26,2.02-4.96,2.89-2.23,1.14-5.5-1.25-5.26-3.82.12-1.26.33-2.53.67-3.75,1.71-6.16,3.49-12.3,5.23-18.46.7-2.46,1.4-4.92,2-7.41.4-1.66-.06-3.19-1.29-4.38-1.14-1.11-2.37-2.15-3.62-3.14-4.52-3.57-9.06-7.1-13.6-10.65-1.76-1.38-3.55-2.73-5.27-4.15-1.53-1.26-2.68-2.76-2.25-4.93.36-1.8,2.37-3.04,5.3-3.25,1.59-.11,3.2-.09,4.79-.21,7.97-.64,15.93-1.34,23.9-1.96,2.53-.2,4.11-1.46,4.97-3.79,2.32-6.3,4.67-12.59,6.99-18.89.88-2.4,1.66-4.84,2.6-7.22.34-.87.99-1.63,1.57-2.39,1.27-1.64,4.82-1.49,5.87.32.79,1.36,1.48,2.82,2,4.31,2.35,6.63,4.58,13.3,6.95,19.93.85,2.37,1.98,4.64,3.06,7.12Z" stroke-width="0"/><path d="m114.25,320.99c-2.59,1.57-5.07,2.98-7.47,4.53-5.89,3.81-11.73,7.71-17.63,11.51-1.33.86-2.77,1.54-4.21,2.19-1.52.68-4.1-.92-4.39-2.7-.15-.93-.32-1.92-.14-2.82.38-1.87.96-3.7,1.51-5.53,2.1-7.03,4.22-14.05,6.31-21.08.79-2.67.35-5.05-1.87-6.92-3.66-3.08-7.29-6.2-11-9.21-3.22-2.62-6.57-5.06-9.77-7.71-1.21-1-2.21-2.28-3.18-3.53-1.02-1.32.12-4.46,1.71-4.82,1.23-.28,2.49-.52,3.75-.61,8.91-.66,17.81-1.41,26.73-1.85,3.78-.19,5.82-2.09,7.05-5.34,1.36-3.58,2.72-7.15,4.04-10.75,1.32-3.59,2.58-7.21,3.89-10.8.33-.89.67-1.8,1.14-2.62.81-1.43,1.93-2.63,3.67-2.71,1.75-.08,3.07.96,3.83,2.41.88,1.68,1.53,3.5,2.18,5.29,2.2,5.99,4.33,12,6.55,17.98.55,1.49,1.2,2.97,2.05,4.29.47.73,1.4,1.43,2.24,1.61,1.85.4,3.78.53,5.68.67,8.59.63,17.18,1.2,25.77,1.86.91.07,1.81.5,2.68.85,1.31.53,2.13,3.06,1.26,4.14-1.19,1.46-2.41,2.96-3.87,4.14-5.21,4.21-10.53,8.28-15.81,12.42-7.71,6.04-7.39,6.19-4.74,15.31,1.69,5.82,3.54,11.59,5.22,17.41.61,2.13.99,4.33,1.37,6.52.1.58-.19,1.24-.36,1.85-.48,1.68-3.16,2.87-4.74,2.02-1.97-1.05-3.9-2.17-5.78-3.37-6.19-3.94-12.33-7.96-18.53-11.89-1.58-1-3.31-1.78-5.13-2.74Z" stroke-width="0"/><path d="m384.58,305.07c-.36-.94-.49-1.98-1.06-2.66-1.02-1.21-2.22-2.3-3.48-3.27-5.81-4.49-11.69-8.91-17.5-13.41-1.5-1.16-2.91-2.47-4.21-3.85-1.49-1.58-.49-5.02,1.61-5.55,1.84-.46,3.73-.78,5.61-.94,7.96-.67,15.92-1.26,23.88-1.88.96-.07,1.91-.16,2.86-.29,1.7-.23,3.04-1.09,3.67-2.68,1.88-4.75,3.72-9.52,5.47-14.32,1.42-3.9,2.64-7.87,4.04-11.78.42-1.18,1.07-2.29,1.75-3.36,1.14-1.78,4.79-1.79,5.82.04.93,1.66,1.74,3.41,2.37,5.2,2.21,6.33,4.32,12.7,6.49,19.04.52,1.51,1.06,3.02,1.73,4.47.83,1.81,2.08,3.18,4.25,3.37,7,.6,14,1.26,21,1.81,2.86.23,5.75.2,8.61.39.93.06,1.85.41,2.74.73,1.61.58,2.64,3.54,1.61,4.88-.95,1.25-1.99,2.49-3.22,3.45-5.04,3.93-10.17,7.74-15.26,11.6-1.53,1.16-3,2.39-4.53,3.54-2.28,1.71-3.26,3.92-2.52,6.7,1.73,6.47,3.52,12.93,5.33,19.38.6,2.15,1.42,4.25,1.98,6.41.31,1.22.37,2.52.42,3.78.1,2.6-3.1,4.82-5.36,3.66-1.98-1.01-3.91-2.16-5.78-3.36-5.91-3.8-11.78-7.67-17.67-11.49-1.07-.69-2.18-1.34-3.31-1.91-1.21-.61-2.52-.62-3.67.06-3.58,2.1-7.15,4.22-10.64,6.46-4.57,2.93-9.04,6.02-13.6,8.97-2.7,1.74-4.87,1.93-6.15.71-1.9-1.81-1.62-4.04-1.07-6.25.54-2.17,1.2-4.3,1.82-6.45,1.68-5.83,3.38-11.66,5.05-17.49.35-1.22.62-2.46.93-3.71Z" stroke-width="0"/></g></svg>